<svg height="560pt" viewBox="0 0 560.383 560" width="560pt" xmlns="http://www.w3.org/2000/svg"><path d="m315.648438 246.300781c-1.515626-3.714843-5.125-6.152343-9.136719-6.167969h-53.101563c-4.019531.011719-7.628906 2.449219-9.148437 6.167969-48.550781 116.460938-150.8125 198.832031-200.75 233.832031h472.996093c-49.96875-35-152.246093-117.359374-200.859374-233.832031zm-47.136719 129.082031c-17.957031 28.835938-38.367188 56.070313-61 81.398438-2.378907 2.679688-6.003907 3.890625-9.511719 3.171875s-6.367188-3.253906-7.5-6.652344c-1.132812-3.398437-.367188-7.140625 2.007812-9.820312 21.902344-24.445313 41.640626-50.746094 59-78.601563 1.796876-3.207031 5.207032-5.171875 8.882813-5.117187 3.671875.058593 7.023437 2.125 8.71875 5.386719 1.695313 3.261718 1.464844 7.191406-.597656 10.234374zm.5-90.921874c-32.925781 65.667968-78.132813 124.417968-133.179688 173.058593-4.082031 3.726563-10.410156 3.4375-14.136719-.644531-3.726562-4.078125-3.4375-10.410156.644532-14.132812 53.160156-46.914063 96.835937-103.582032 128.660156-166.941407 1.429688-3.402343 4.621094-5.742187 8.296875-6.078125 3.679687-.339844 7.242187 1.375 9.273437 4.457032 2.027344 3.085937 2.195313 7.039062.429688 10.28125zm97.636719 173.152343c-1.980469 1.765625-4.585938 2.667969-7.234376 2.515625-2.652343-.15625-5.132812-1.359375-6.894531-3.347656-22.636719-25.328125-43.042969-52.5625-61-81.398438-2.066406-3.042968-2.296875-6.96875-.597656-10.230468 1.695313-3.261719 5.042969-5.332032 8.71875-5.386719s7.085937 1.910156 8.878906 5.117187c17.363281 27.855469 37.101563 54.152344 59 78.601563 1.761719 1.988281 2.660157 4.59375 2.496094 7.246094-.164063 2.648437-1.375 5.125-3.367187 6.882812zm71.652343-.742187c-1.789062 1.960937-4.28125 3.128906-6.933593 3.246094-2.648438.121093-5.238282-.816407-7.199219-2.605469-55.039063-48.640625-100.246094-107.386719-133.167969-173.050781-2.066406-4.910157.082031-10.578126 4.882812-12.890626 4.800782-2.308593 10.570313-.449218 13.117188 4.230469 31.816406 63.375 75.488281 120.066407 128.648438 167 4.042968 3.71875 4.335937 9.996094.652343 14.070313zm0 0"/><path d="m350 520.132812h200c5.523438 0 10-4.476562 10-10 0-5.523437-4.476562-10-10-10h-540c-5.523438 0-10 4.476563-10 10 0 5.519532 4.476562 10 10 10h160c5.523438 0 10 4.476563 10 10 0 5.523438-4.476562 10-10 10h-160c-5.523438 0-10 4.476563-10 10 0 5.523438 4.476562 10 10 10h540c5.523438 0 10-4.476562 10-10 0-5.523437-4.476562-10-10-10h-200c-5.523438 0-10-4.476562-10-10 0-5.523437 4.476562-10 10-10zm-50 20h-80c-5.523438 0-10-4.476562-10-10 0-5.523437 4.476562-10 10-10h80c5.523438 0 10 4.476563 10 10 0 5.523438-4.476562 10-10 10zm0 0"/><path d="m405 40.132812c-2.515625-.007812-5.03125.234376-7.5.71875-2.820312.546876-5.742188-.148437-8.015625-1.90625-2.273437-1.753906-3.679687-4.40625-3.863281-7.273437-.46875-9.273437-6.546875-17.320313-15.339844-20.308594-8.789062-2.984375-18.511719-.300781-24.53125 6.769531-3.308594 3.808594-8.941406 4.554688-13.128906 1.738282-15.90625-10.316406-35.765625-12.480469-53.519532-5.828125-4.496093 1.722656-9.582031-.035157-12.050781-4.171875-3.984375-6.683594-11.507812-10.417969-19.238281-9.558594-7.730469.863281-14.246094 6.164062-16.664062 13.558594-1.070313 3.101562-3.597657 5.484375-6.757813 6.367187-3.160156.882813-6.554687.160157-9.082031-1.9375-6.136719-5.238281-13.9375-8.132812-22.007813-8.167969-17.890625.003907-32.84375 13.601563-34.550781 31.40625-.277344 2.730469-1.664062 5.222657-3.832031 6.898438s-4.929688 2.390625-7.640625 1.972656c-3.246094-.5-2.878906-.890625-13.257813 4-8.429687 3.722656-13.90625 12.019532-14.019531 21.230469.238281 12.730469 10.089844 23.207031 22.78125 24.230469 2.902344.261718 5.546875 1.773437 7.242188 4.144531 1.695312 2.371094 2.269531 5.367187 1.574218 8.195313-1.046875 4.226562-1.585937 8.566406-1.597656 12.921874.03125 30.359376 24.636719 54.964844 55 55h35v-20c.023438-2.640624-1.003906-5.179687-2.859375-7.054687-1.855469-1.878906-4.382813-2.9375-7.019531-2.945313-5.523438.03125-10.027344-4.417968-10.0625-9.941406-.03125-5.523437 4.417968-10.027344 9.941406-10.058594 16.570312 0 30 13.429688 30 30v50c0 5.523438 4.476562 10 10 10h20c5.523438 0 10-4.476562 10-10v-50c0-7.957031 3.160156-15.589843 8.789062-21.214843 5.625-5.625 13.253907-8.785157 21.210938-8.785157 5.523438.03125 9.972656 4.535157 9.941406 10.058594-.03125 5.523438-4.535156 9.972656-10.058594 9.941406-2.640624.007813-5.167968 1.066407-7.023437 2.945313-1.851563 1.875-2.882813 4.414063-2.859375 7.054687v20h35c19.332031 0 35-15.671874 35-35-.027344-.886718-.109375-1.765624-.25-2.640624l-.179688-1.550782c-.316406-3.003906.738282-5.992187 2.875-8.128906 2.136719-2.132812 5.121094-3.191406 8.125-2.871094 1.546876.164063 3.097657.242188 4.652344.230469 24.863282-.0625 44.96875-20.265625 44.910156-45.132813-.0625-24.863281-20.269531-44.96875-45.132812-44.90625zm-195 50c-5.523438 0-10 4.476563-10 10 0 5.523438-4.476562 10-10 10s-10-4.476562-10-10c0-16.570312 13.433594-30 30-30 5.523438 0 10 4.476563 10 10 0 5.523438-4.476562 10-10 10zm80 0c-5.523438 0-10-4.476562-10-10 0-5.523437-4.476562-10-10-10s-10-4.480468-10-10c0-5.523437 4.476562-10.003906 10-10.003906 16.566406 0 30 13.433594 30 30.003906 0 5.523438-4.476562 10-10 10zm101.210938-2.921874c-3.90625 3.902343-10.238282 3.902343-14.140626 0-3.957031-3.78125-10.1875-3.78125-14.140624 0-2.527344 2.527343-6.210938 3.515624-9.660157 2.59375-3.453125-.925782-6.148437-3.621094-7.078125-7.070313-.925781-3.453125.0625-7.136719 2.585938-9.664063 11.875-11.339843 30.566406-11.339843 42.441406 0 3.902344 3.910157 3.898438 10.238282-.007812 14.140626zm0 0"/></svg>