<svg id="Capa_1" enable-background="new 0 0 512 512" height="512" viewBox="0 0 512 512" width="512" xmlns="http://www.w3.org/2000/svg"><g><path d="m453.968 339.946v-113.576h-42.221v-72.049h.821l43.011-43.012-15.77-63.085h-132.133l-15.772 63.085 43.011 43.012h.821v72.049h-131.8v-115.533h28.484v-30h-232.42v318.074h24.231c1.722-48.889 42.023-88.132 91.325-88.132 31.792 0 59.839 16.321 76.217 41.021 16.377-24.7 44.425-41.021 76.217-41.021 49.301 0 89.603 39.243 91.325 88.132h24.846v64.865h127.839v-56.127zm-280.032-163.883v50.307h-78.71v-50.307z"/><path d="m267.989 340.778c-28.729 0-52.842 19.737-59.536 46.39h-33.362c-6.694-26.652-30.807-46.39-59.536-46.39-33.904 0-61.389 27.485-61.389 61.389s27.485 61.389 61.389 61.389c28.729 0 52.841-19.737 59.535-46.389h33.362c6.694 26.652 30.807 46.389 59.536 46.389 33.904 0 61.389-27.485 61.389-61.389s-27.483-61.389-61.388-61.389z"/></g></svg>